<?xml version="1.0" encoding="utf-8"?>
<!-- Generator: Adobe Illustrator 17.1.0, SVG Export Plug-In . SVG Version: 6.00 Build 0)  -->
<!DOCTYPE svg PUBLIC "-//W3C//DTD SVG 1.1//EN" "http://www.w3.org/Graphics/SVG/1.1/DTD/svg11.dtd">
<svg version="1.1" id="Layer_1" xmlns="http://www.w3.org/2000/svg" xmlns:xlink="http://www.w3.org/1999/xlink" x="0px" y="0px"
	 viewBox="0 0 106 82" enable-background="new 0 0 106 82" xml:space="preserve">
<path display="none" fill="none" stroke="#1C75BC" stroke-width="90" stroke-miterlimit="10" d="M-79.5,248.4c0,0,68.7,0,153.8,0
	S243.5,165,243.5,40c0-101.5,70.5-189.4,155.8-189.4c102.5,0,164,0,164,0"/>
<path display="none" fill="#1C75BC" d="M74.3,293.4H-79.5v-90H74.3c29.4,0,59.4-15.2,82.5-41.8c26.9-31,41.7-74.2,41.7-121.6
	c0-59.7,19.9-116.9,56.1-161.2c18.2-22.3,39.6-40.1,63.4-52.6c25.8-13.6,53.2-20.5,81.3-20.5h164v90h-164
	c-59,0-110.8,67.5-110.8,144.4c0,69.1-22.6,133.3-63.7,180.6C184.6,266.9,129.8,293.4,74.3,293.4z"/>
<g display="none">
	<path display="inline" d="M563.8-103.9H399.3C340.5-103.9,289-36.6,289,40c0,69.2-22.7,133.5-63.8,180.9
		c-40.3,46.4-95.3,73-150.9,73H-80l1-1H74.3c55.3,0,110-26.5,150.1-72.7C265.4,173,288,109,288,40c0-77.2,52-144.9,111.3-144.9
		h163.5L563.8-103.9z"/>
	<path display="inline" d="M563.8-194.9H399.3c-28.3,0-55.7,6.9-81.6,20.6c-23.9,12.6-45.3,30.4-63.6,52.8
		C217.9-77.1,198-19.8,198,40c0,47.3-14.8,90.4-41.5,121.3c-23,26.5-52.9,41.7-82.1,41.7H-80l1,1H74.3c29.5,0,59.7-15.3,82.9-42
		C184.1,130.9,199,87.6,199,40c0-59.6,19.9-116.7,56-160.9c18.2-22.3,39.5-40,63.3-52.5c25.7-13.6,53-20.5,81.1-20.5h163.5
		L563.8-194.9z"/>
</g>
<g>
	<rect x="20" y="17.9" fill="#00A79D" width="64.8" height="48.9"/>
	<g>
		<g>
			<g>
				<g>
					
						<text transform="matrix(-1 -2.152415e-003 2.152415e-003 -1 84.7889 13.9176)" fill="#FFFFFF" font-family="'CaviarDreams-Bold'" font-size="72">M</text>
				</g>
			</g>
		</g>
	</g>
</g>
</svg>
