
<svg version="1.1" id="Layer_1" xmlns="http://www.w3.org/2000/svg" xmlns:xlink="http://www.w3.org/1999/xlink" x="0px" y="0px"
	 viewBox="0 0 402.5 127.5" enable-background="new 0 0 402.5 127.5" xml:space="preserve">
<path display="none" fill="red" stroke="#1C75BC" stroke-width="90" stroke-miterlimit="10" d="M-99.5,273.4c0,0,68.7,0,153.8,0
	S223.5,190,223.5,65c0-101.5,70.5-189.4,155.8-189.4c102.5,0,164,0,164,0"/>
<path display="none" fill="#1C75BC" d="M54.3,318.4H-99.5v-90H54.3c29.4,0,59.4-15.2,82.5-41.8c26.9-31,41.7-74.2,41.7-121.6
	c0-59.7,19.9-116.9,56.1-161.2c18.2-22.3,39.6-40.1,63.4-52.6c25.8-13.6,53.2-20.5,81.3-20.5h164v90h-164
	c-59,0-110.8,67.5-110.8,144.4c0,69.1-22.6,133.3-63.7,180.6C164.6,291.9,109.8,318.4,54.3,318.4z"/>
<g display="none">
	<path display="inline" d="M543.8-78.9H379.3C320.5-78.9,269-11.6,269,65c0,69.2-22.7,133.5-63.8,180.9c-40.3,46.4-95.3,73-150.9,73
		H-100l1-1H54.3c55.3,0,110-26.5,150.1-72.7C245.4,198,268,134,268,65c0-77.2,52-144.9,111.3-144.9h163.5L543.8-78.9z"/>
	<path display="inline" d="M543.8-169.9H379.3c-28.3,0-55.7,6.9-81.6,20.6c-23.9,12.6-45.3,30.4-63.6,52.8
		C197.9-52.1,178,5.2,178,65c0,47.3-14.8,90.4-41.5,121.3c-23,26.5-52.9,41.7-82.1,41.7H-100l1,1H54.3c29.5,0,59.7-15.3,82.9-42
		C164.1,155.9,179,112.6,179,65c0-59.6,19.9-116.7,56-160.9c18.2-22.3,39.5-40,63.3-52.5c25.7-13.6,53-20.5,81.1-20.5h163.5
		L543.8-169.9z"/>
</g>
<g display="none">
</g>
<line display="none" fill="none" x1="189" y1="48" x2="222" y2="81"/>
<path display="none" fill="#020202" d="M205.5-10.3"/>
<path display="none" fill="#020202" d="M205.5,11.7"/>
<g>
	<g>
		<g>
			<text transform="matrix(1 0 0 1 9.3848 91.335)" font-family="'CaviarDreams-Bold'" font-size="72">MARIANOZ</text>
		</g>
		<line display="none" stroke="#6C56A4" stroke-miterlimit="10" x1="5.6" y1="112.5" x2="399.1" y2="112.5"/>
		<line display="none" stroke="#6C56A4" stroke-miterlimit="10" x1="5.6" y1="21" x2="405.5" y2="9"/>
	</g>
</g>
<path fill="none" stroke="#6C56A4" stroke-miterlimit="10" d="M557.8-11.2"/>
</svg>
